<svg width="32" height="32" viewBox="0 0 32 32" fill="none" xmlns="http://www.w3.org/2000/svg">
<path d="M13.472 19.424H12.16C11.552 19.424 11.04 18.912 11.04 18.304V15.968C11.04 15.36 11.552 14.848 12.16 14.848H13.472C14.08 14.848 14.592 15.36 14.592 15.968V18.304C14.592 18.912 14.112 19.424 13.472 19.424Z" fill="#E4873C"/>
<path d="M19.072 19.424H17.76C17.152 19.424 16.64 18.912 16.64 18.304V15.968C16.64 15.36 17.152 14.848 17.76 14.848H19.072C19.68 14.848 20.192 15.36 20.192 15.968V18.304C20.192 18.912 19.68 19.424 19.072 19.424Z" fill="#E4873C"/>
<path d="M16 0.799988C7.61599 0.799988 0.799988 7.61599 0.799988 16C0.799988 24.384 7.61599 31.2 16 31.2H28.8C30.144 31.2 31.2 30.112 31.2 28.8V16C31.2 7.61599 24.384 0.799988 16 0.799988ZM26.656 18.144C26.656 19.136 25.856 19.904 24.896 19.904H24.096C24.032 19.904 23.936 19.904 23.872 19.872C22.592 22.592 19.552 24.48 16 24.48C12.448 24.48 9.40799 22.592 8.15999 19.904H7.35999C6.36799 19.904 5.59999 19.104 5.59999 18.144V16.128C5.59999 15.136 6.39999 14.368 7.35999 14.368H8.12799C9.21599 12.064 11.648 10.336 14.592 9.91999V7.99999C13.984 7.64799 13.568 7.00799 13.568 6.23999C13.568 5.11999 14.464 4.22399 15.584 4.22399C16.704 4.22399 17.6 5.11999 17.6 6.23999C17.6 6.97599 17.184 7.64799 16.576 7.99999V9.82399C19.872 10.048 22.624 11.84 23.808 14.368C23.872 14.368 23.968 14.336 24.032 14.336H24.832C25.824 14.336 26.592 15.136 26.592 16.096V18.144H26.656Z" fill="url(#paint0_linear_36_9826)"/>
<defs>
<linearGradient id="paint0_linear_36_9826" x1="16" y1="0.799988" x2="16" y2="31.2" gradientUnits="userSpaceOnUse">
<stop stop-color="#E4873C"/>
<stop offset="1" stop-color="#FF7200"/>
</linearGradient>
</defs>
</svg>
