<svg width="245" height="93" viewBox="0 0 245 93" fill="none" xmlns="http://www.w3.org/2000/svg">
<g clip-path="url(#clip0_33_4526)">
<path fill-rule="evenodd" clip-rule="evenodd" d="M152.894 83.6309V77.4433H164.299V75.4138H152.774C152.574 75.4291 152.374 75.452 152.174 75.4901C151.998 75.5283 151.83 75.5741 151.67 75.6427C151.406 75.7648 151.199 75.9708 151.071 76.215C150.999 76.3752 150.943 76.543 150.895 76.7185C150.831 76.9169 150.791 77.1229 150.783 77.3365C150.783 77.5578 150.743 77.8172 150.743 78.0918V84.3862C150.743 84.6609 150.783 84.9203 150.783 85.1415C150.799 85.3475 150.831 85.5535 150.895 85.7595C150.943 85.9274 150.999 86.0952 151.071 86.2631C151.199 86.5148 151.414 86.7132 151.67 86.8353C151.83 86.8963 151.998 86.9497 152.174 86.9879C152.374 87.026 152.574 87.0489 152.774 87.0642H162.251C162.451 87.0489 162.651 87.026 162.851 86.9879C163.027 86.9497 163.195 86.9039 163.355 86.8353C163.619 86.7132 163.827 86.5072 163.955 86.2631C164.027 86.1028 164.083 85.935 164.131 85.7595C164.195 85.5611 164.235 85.3551 164.243 85.1415C164.243 84.9203 164.283 84.6609 164.283 84.3862V80.2205H162.123H157.485V82.2423H162.123V85.0271H152.886V83.6385L152.894 83.6309Z" fill="black"/>
<path fill-rule="evenodd" clip-rule="evenodd" d="M91.0245 78.2448V77.4513H100.27V75.4142H90.9045C90.7046 75.4295 90.5046 75.4524 90.3047 75.4905C90.1287 75.5287 89.9608 75.5744 89.8008 75.6431C89.5369 75.7652 89.329 75.9712 89.201 76.2153C89.129 76.3755 89.0731 76.5434 89.0251 76.7189C88.9611 76.9172 88.9211 77.1232 88.9131 77.3369C88.9051 77.5505 88.8651 77.8099 88.8651 78.0846V84.44C88.8651 84.7146 88.9051 84.974 88.9051 85.1953C88.9211 85.4013 88.9531 85.6073 89.0171 85.8133C89.0651 85.9811 89.121 86.149 89.193 86.3168C89.321 86.5686 89.5369 86.767 89.7928 86.8891C89.9528 86.9501 90.1207 87.0035 90.2967 87.0416C90.4966 87.0798 90.6966 87.1027 90.8965 87.1179H100.262V85.0885H91.0245V78.2448Z" fill="black"/>
<path fill-rule="evenodd" clip-rule="evenodd" d="M132.212 77.3289C132.196 77.1229 132.164 76.9169 132.1 76.7109C132.052 76.5431 131.996 76.3752 131.924 76.2074C131.796 75.9556 131.58 75.7572 131.324 75.6351C131.164 75.5741 130.996 75.5207 130.82 75.4825C130.62 75.4444 130.42 75.4215 130.221 75.4062H120.799C120.599 75.4215 120.399 75.4444 120.2 75.4825C120.024 75.5207 119.856 75.5665 119.696 75.6351C119.432 75.7572 119.224 75.9632 119.096 76.2074C119.024 76.3676 118.968 76.5354 118.92 76.7109C118.856 76.9093 118.816 77.1153 118.808 77.3289C118.808 77.5502 118.768 77.8096 118.768 78.0842V87.11H120.919V82.2957H130.133V87.11H132.284V78.0919C132.284 77.8172 132.244 77.5578 132.244 77.3365L132.212 77.3289ZM120.895 77.4815H130.109V80.251H120.895V77.4815Z" fill="black"/>
<path fill-rule="evenodd" clip-rule="evenodd" d="M136.787 87.1099V77.7943L137.258 78.2749L145.504 87.1252H146.128C146.336 87.1099 146.544 87.0871 146.744 87.0489C146.912 87.0108 147.071 86.965 147.231 86.8963C147.495 86.7742 147.703 86.5682 147.831 86.3241C147.911 86.1639 147.975 85.996 148.031 85.8206C148.079 85.6146 148.103 85.4086 148.127 85.2026C148.167 84.9508 148.175 84.699 148.167 84.4472V75.3986H146.008V84.6609L145.536 84.1955L137.346 75.4138H136.707C136.515 75.4138 136.275 75.452 136.083 75.4901C135.915 75.5283 135.755 75.5817 135.595 75.6427C135.467 75.7114 135.355 75.7877 135.251 75.8869C135.147 75.9861 135.067 76.0929 134.995 76.215C134.915 76.3752 134.851 76.543 134.803 76.7185C134.755 76.9245 134.723 77.1305 134.707 77.3365C134.691 77.5883 134.691 77.84 134.707 78.0918V87.1176H136.795L136.787 87.1099Z" fill="black"/>
<path fill-rule="evenodd" clip-rule="evenodd" d="M217.115 87.1099V77.7943L217.587 78.2749L225.832 87.1252H226.456C226.664 87.1099 226.872 87.0871 227.072 87.0489C227.24 87.0108 227.4 86.965 227.56 86.8963C227.824 86.7742 228.032 86.5682 228.16 86.3241C228.239 86.1639 228.303 85.996 228.359 85.8206C228.407 85.6146 228.431 85.4086 228.455 85.2026C228.495 84.9508 228.503 84.699 228.495 84.4472V75.3986H226.336V84.6609L225.864 84.1955L217.675 75.4138H217.035C216.843 75.4138 216.603 75.452 216.411 75.4901C216.243 75.5283 216.083 75.5817 215.923 75.6427C215.795 75.7114 215.683 75.7877 215.579 75.8869C215.475 75.9861 215.395 76.0929 215.323 76.215C215.243 76.3752 215.179 76.543 215.131 76.7185C215.083 76.9245 215.051 77.1305 215.035 77.3365C215.019 77.5883 215.019 77.84 215.035 78.0918V87.1176H217.123L217.115 87.1099Z" fill="black"/>
<path fill-rule="evenodd" clip-rule="evenodd" d="M114.178 75.4138V80.251H105.004V75.4138H102.837V87.1099H105.004V82.6161V82.2957H114.178V82.6161V87.1099H116.305V75.4138H114.178Z" fill="black"/>
<path fill-rule="evenodd" clip-rule="evenodd" d="M169.105 82.2423H174.831V80.2205H169.105V77.428H177.166L179.478 75.4138H168.985C168.785 75.4291 168.585 75.452 168.385 75.4901C168.209 75.5283 168.041 75.5741 167.881 75.6427C167.617 75.7648 167.409 75.9708 167.281 76.215C167.209 76.3752 167.153 76.543 167.105 76.7185C167.041 76.9169 167.001 77.1229 166.993 77.3365C166.993 77.5578 166.953 77.8172 166.953 78.0918V84.4472C166.953 84.7219 166.993 84.9813 166.993 85.2026C167.009 85.4086 167.041 85.6146 167.105 85.8206C167.153 85.9884 167.209 86.1563 167.281 86.3241C167.409 86.5759 167.625 86.7742 167.881 86.8963C168.041 86.9574 168.209 87.0108 168.385 87.0489C168.585 87.0871 168.785 87.1099 168.985 87.1252H179.438V85.0957H169.105V82.2499V82.2423Z" fill="black"/>
<path fill-rule="evenodd" clip-rule="evenodd" d="M196.305 77.3289C196.289 77.1229 196.257 76.9169 196.193 76.7109C196.145 76.5431 196.089 76.3752 196.017 76.2074C195.889 75.9556 195.673 75.7572 195.417 75.6351C195.257 75.5741 195.089 75.5207 194.914 75.4825C194.714 75.4444 194.514 75.4215 194.314 75.4062H182.141L184.445 77.4128H194.202V80.2129H184.069V87.0642H186.26V82.2805H194.306C194.506 82.2652 194.706 82.2423 194.906 82.2042C195.081 82.166 195.249 82.1203 195.409 82.0516C195.673 81.9295 195.881 81.7235 196.009 81.4794C196.081 81.3191 196.137 81.1513 196.185 80.9758C196.249 80.7775 196.289 80.5715 196.297 80.3578C196.297 80.1366 196.337 79.8772 196.337 79.6025V78.069C196.337 77.7943 196.297 77.5349 196.297 77.3136L196.305 77.3289Z" fill="black"/>
<path fill-rule="evenodd" clip-rule="evenodd" d="M212.412 77.3289C212.396 77.1229 212.364 76.9169 212.3 76.7109C212.252 76.5431 212.196 76.3752 212.124 76.2074C211.996 75.9556 211.78 75.7572 211.524 75.6351C211.364 75.5741 211.196 75.5207 211.02 75.4825C210.82 75.4444 210.62 75.4215 210.421 75.4062H200.959C200.759 75.4215 200.559 75.4444 200.36 75.4825C200.184 75.5207 200.016 75.5665 199.856 75.6351C199.592 75.7572 199.384 75.9632 199.256 76.2074C199.184 76.3676 199.128 76.5354 199.08 76.7109C199.016 76.9093 198.976 77.1153 198.968 77.3289C198.968 77.5502 198.928 77.8096 198.928 78.0842V84.4396C198.928 84.7143 198.968 84.9737 198.968 85.195C198.984 85.401 199.016 85.607 199.08 85.813C199.128 85.9808 199.184 86.1487 199.256 86.3165C199.384 86.5683 199.6 86.7666 199.856 86.8887C200.016 86.9498 200.184 87.0032 200.36 87.0413C200.559 87.0795 200.759 87.1023 200.959 87.1176H210.421C210.62 87.1023 210.82 87.0795 211.02 87.0413C211.196 87.0032 211.364 86.9574 211.524 86.8887C211.788 86.7666 211.996 86.5606 212.124 86.3165C212.196 86.1563 212.252 85.9884 212.3 85.813C212.364 85.6146 212.404 85.4086 212.412 85.195C212.412 84.9737 212.452 84.7143 212.452 84.4396V78.0919C212.452 77.8096 212.412 77.5578 212.412 77.3365V77.3289ZM210.293 78.2368V85.0805H201.071V77.4433H210.293V78.2368Z" fill="black"/>
<path fill-rule="evenodd" clip-rule="evenodd" d="M244.61 78.0842C244.61 77.8096 244.57 77.5502 244.57 77.3289C244.554 77.1229 244.522 76.9169 244.458 76.7109C244.41 76.5431 244.354 76.3752 244.282 76.2074C244.155 75.9556 243.939 75.7572 243.683 75.6351C243.523 75.5741 243.355 75.5207 243.179 75.4825C242.979 75.4444 242.779 75.4215 242.579 75.4062H231.07V77.4357H242.459V85.0729H233.278V80.2434H231.118V85.0729H231.086V87.1023H242.579C242.779 87.0871 242.979 87.0642 243.179 87.026C243.355 86.9879 243.523 86.9421 243.683 86.8735C243.947 86.7514 244.155 86.5454 244.282 86.3012C244.354 86.141 244.41 85.9732 244.458 85.7977C244.522 85.5993 244.562 85.3933 244.57 85.1797C244.57 84.9584 244.61 84.699 244.61 84.4244V78.0842Z" fill="black"/>
</g>
<path d="M15.1375 78.1737C15.8208 78.1737 16.4065 78.2947 16.8946 78.5366C17.3869 78.7742 17.7583 79.1053 18.0087 79.5297C18.2633 79.9541 18.3907 80.4443 18.3907 81.0003C18.3907 81.5945 18.2655 82.1017 18.0151 82.5218C17.7647 82.942 17.3954 83.2624 16.9073 83.4831C16.4235 83.6996 15.8336 83.8078 15.1375 83.8078H12.9475V87.4429H11.7125V78.1737H15.1375ZM15.1375 82.8147C15.8251 82.8147 16.3323 82.6534 16.6591 82.3308C16.9901 82.0083 17.1556 81.569 17.1556 81.013C17.1556 80.6777 17.0835 80.3722 16.9392 80.0963C16.7991 79.8162 16.5763 79.5934 16.2707 79.4278C15.9694 79.2581 15.5916 79.1732 15.1375 79.1732H12.9475V82.8147H15.1375ZM19.3711 83.9288C19.3711 83.2624 19.4984 82.664 19.753 82.1335C20.0077 81.603 20.3706 81.187 20.8417 80.8857C21.317 80.5801 21.8688 80.4273 22.4969 80.4273C23.1335 80.4273 23.6895 80.5801 24.1648 80.8857C24.6402 81.187 25.0052 81.603 25.2598 82.1335C25.5145 82.664 25.6418 83.2624 25.6418 83.9288V84.0752C25.6418 84.7415 25.5145 85.34 25.2598 85.8705C25.0052 86.3967 24.6402 86.8127 24.1648 87.1183C23.6937 87.4196 23.142 87.5703 22.5096 87.5703C21.8772 87.5703 21.3234 87.4196 20.848 87.1183C20.3769 86.8127 20.0119 86.3967 19.753 85.8705C19.4984 85.34 19.3711 84.7415 19.3711 84.0752V83.9288ZM20.5616 84.0752C20.5616 84.5421 20.6337 84.9686 20.778 85.3548C20.9266 85.741 21.1473 86.0487 21.4401 86.2779C21.7329 86.5029 22.0895 86.6153 22.5096 86.6153C22.9256 86.6153 23.2799 86.5029 23.5728 86.2779C23.8656 86.0487 24.0842 85.741 24.2285 85.3548C24.3771 84.9686 24.4513 84.5421 24.4513 84.0752V83.9288C24.4513 83.4619 24.3771 83.0354 24.2285 82.6492C24.08 82.2629 23.8593 81.9552 23.5664 81.7261C23.2736 81.4969 22.9171 81.3823 22.4969 81.3823C22.081 81.3823 21.7266 81.4969 21.4337 81.7261C21.1451 81.9552 20.9266 82.2629 20.778 82.6492C20.6337 83.0354 20.5616 83.4619 20.5616 83.9288V84.0752ZM35.7259 80.5547L33.7269 87.4429H32.9375H32.7656L31.0977 82.2417L29.4679 87.4429H28.7103H28.5066L26.5076 80.5547H27.6917L29.0414 85.6668L30.6393 80.5547H31.4224H31.6006L33.224 85.7813L34.5482 80.5547H35.7259ZM42.4805 84.3235H37.8204C37.8332 84.7521 37.9223 85.1405 38.0878 85.4885C38.2533 85.8365 38.4868 86.1124 38.7881 86.3161C39.0937 86.5156 39.4502 86.6153 39.8576 86.6153C40.2566 86.6153 40.6003 86.5347 40.8889 86.3734C41.1818 86.2121 41.4428 85.9808 41.672 85.6795L42.3914 86.2397C42.1367 86.6302 41.7972 86.9506 41.3728 87.201C40.9484 87.4472 40.4221 87.5703 39.794 87.5703C39.1658 87.5703 38.612 87.4281 38.1324 87.1437C37.6528 86.8594 37.2814 86.4647 37.0183 85.9596C36.7594 85.4545 36.6299 84.8816 36.6299 84.2407V83.967C36.6299 83.2497 36.77 82.6237 37.0501 82.0889C37.3302 81.5499 37.6995 81.1382 38.1578 80.8539C38.6204 80.5695 39.1149 80.4273 39.6412 80.4273C40.282 80.4273 40.8126 80.5716 41.2327 80.8602C41.6571 81.1446 41.9712 81.5393 42.1749 82.0444C42.3786 82.5494 42.4805 83.133 42.4805 83.7951V84.3235ZM41.29 83.2794C41.2561 82.7404 41.1096 82.2905 40.8507 81.9298C40.5961 81.5648 40.1929 81.3823 39.6412 81.3823C39.1658 81.3823 38.769 81.5563 38.4507 81.9043C38.1366 82.2481 37.9393 82.7362 37.8586 83.3685H41.29V83.2794ZM46.6695 80.4273C46.7459 80.4273 46.8414 80.438 46.956 80.4592C47.0706 80.4761 47.1491 80.4952 47.1915 80.5165V81.6051C47.009 81.5711 46.8159 81.5542 46.6122 81.5542C46.2217 81.5542 45.8949 81.6412 45.6318 81.8152C45.3729 81.9892 45.1777 82.2332 45.0461 82.5473V87.4429H43.8556V80.5547H45.0143L45.0397 81.3377C45.218 81.0491 45.4429 80.8263 45.7145 80.6693C45.9862 80.508 46.3045 80.4273 46.6695 80.4273ZM53.8251 84.3235H49.165C49.1778 84.7521 49.2669 85.1405 49.4324 85.4885C49.598 85.8365 49.8314 86.1124 50.1327 86.3161C50.4383 86.5156 50.7948 86.6153 51.2022 86.6153C51.6012 86.6153 51.945 86.5347 52.2336 86.3734C52.5264 86.2121 52.7874 85.9808 53.0166 85.6795L53.736 86.2397C53.4814 86.6302 53.1418 86.9506 52.7174 87.201C52.293 87.4472 51.7667 87.5703 51.1386 87.5703C50.5104 87.5703 49.9566 87.4281 49.477 87.1437C48.9974 86.8594 48.626 86.4647 48.3629 85.9596C48.104 85.4545 47.9746 84.8816 47.9746 84.2407V83.967C47.9746 83.2497 48.1146 82.6237 48.3947 82.0889C48.6748 81.5499 49.0441 81.1382 49.5025 80.8539C49.9651 80.5695 50.4595 80.4273 50.9858 80.4273C51.6267 80.4273 52.1572 80.5716 52.5774 80.8602C53.0018 81.1446 53.3158 81.5393 53.5196 82.0444C53.7233 82.5494 53.8251 83.133 53.8251 83.7951V84.3235ZM52.6346 83.2794C52.6007 82.7404 52.4543 82.2905 52.1954 81.9298C51.9407 81.5648 51.5375 81.3823 50.9858 81.3823C50.5104 81.3823 50.1136 81.5563 49.7953 81.9043C49.4812 82.2481 49.2839 82.7362 49.2032 83.3685H52.6346V83.2794ZM60.7325 77.6644V87.4429H59.6439L59.5866 86.7108C59.1197 87.2838 58.4661 87.5703 57.6258 87.5703C57.0953 87.5703 56.6242 87.4196 56.2125 87.1183C55.8008 86.8169 55.4804 86.401 55.2512 85.8705C55.0262 85.34 54.9138 84.7415 54.9138 84.0752V83.9415C54.9138 83.2455 55.0262 82.6322 55.2512 82.1017C55.4761 81.5711 55.7944 81.1595 56.2061 80.8666C56.6178 80.5738 57.0953 80.4273 57.6385 80.4273C58.4491 80.4273 59.0836 80.6968 59.542 81.2359V77.6644H60.7325ZM57.9186 86.5771C58.6529 86.5771 59.194 86.244 59.542 85.5776V82.3881C59.3807 82.0868 59.1664 81.8491 58.899 81.6751C58.6359 81.5011 58.3133 81.4141 57.9314 81.4141C57.5197 81.4141 57.1759 81.5266 56.9 81.7515C56.6284 81.9722 56.4268 82.2735 56.2952 82.6555C56.1679 83.0375 56.1042 83.4662 56.1042 83.9415V84.0752C56.1042 84.5505 56.1679 84.9771 56.2952 85.3548C56.4268 85.7283 56.6284 86.0254 56.9 86.2461C57.1717 86.4668 57.5112 86.5771 57.9186 86.5771ZM68.9449 80.4273C69.5094 80.4273 69.9932 80.5738 70.3964 80.8666C70.7996 81.1552 71.1052 81.5648 71.3132 82.0953C71.5254 82.6216 71.6315 83.237 71.6315 83.9415V84.0752C71.6315 84.75 71.5254 85.3527 71.3132 85.8832C71.1052 86.4095 70.7996 86.8233 70.3964 87.1246C69.9932 87.4217 69.5137 87.5703 68.9577 87.5703C68.0876 87.5703 67.4149 87.2668 66.9396 86.6599L66.8823 87.4429H65.7937V77.6644H66.9841V81.2931C67.4552 80.7159 68.1088 80.4273 68.9449 80.4273ZM70.441 83.9415C70.441 83.186 70.2967 82.577 70.0081 82.1144C69.7237 81.6475 69.2696 81.4141 68.6457 81.4141C68.2425 81.4141 67.903 81.5117 67.6271 81.707C67.3555 81.8979 67.1412 82.159 66.9841 82.49V85.5012C67.1454 85.828 67.364 86.089 67.6399 86.2843C67.92 86.4795 68.2595 86.5771 68.6585 86.5771C69.2569 86.5771 69.7025 86.3458 69.9954 85.8832C70.2925 85.4163 70.441 84.8137 70.441 84.0752V83.9415ZM78.2333 80.5547L75.4703 88.5061C75.3006 88.9687 75.0544 89.3698 74.7318 89.7093C74.4135 90.0531 73.9785 90.225 73.4268 90.225C73.3376 90.225 73.2209 90.2122 73.0766 90.1868C72.9366 90.1656 72.8305 90.1443 72.7583 90.1231V89.1745C72.805 89.183 72.8581 89.1894 72.9175 89.1936C72.9769 89.2021 73.0299 89.2064 73.0766 89.2064C73.4798 89.2064 73.7918 89.1215 74.0125 88.9517C74.2374 88.7862 74.4199 88.4934 74.56 88.0732L74.821 87.3665L72.3636 80.5547H73.6623L75.3685 85.7113L76.9664 80.5547H78.2333Z" fill="black"/>
<path d="M23.9121 33.8036H21.667C20.6265 33.8036 19.7504 32.9274 19.7504 31.887V27.8895C19.7504 26.8491 20.6265 25.9729 21.667 25.9729H23.9121C24.9525 25.9729 25.8287 26.8491 25.8287 27.8895V31.887C25.8287 32.9274 25.0073 33.8036 23.9121 33.8036Z" fill="url(#paint0_linear_33_4526)"/>
<path d="M33.495 33.8036H31.2498C30.2094 33.8036 29.3333 32.9274 29.3333 31.887V27.8895C29.3333 26.8491 30.2094 25.9729 31.2498 25.9729H33.495C34.5354 25.9729 35.4116 26.8491 35.4116 27.8895V31.887C35.4116 32.9274 34.5354 33.8036 33.495 33.8036Z" fill="url(#paint1_linear_33_4526)"/>
<path d="M28.2382 1.93335C13.8911 1.93335 2.22729 13.5972 2.22729 27.9443C2.22729 42.2913 13.8911 53.9552 28.2382 53.9552H50.1421C52.442 53.9552 54.2491 52.0933 54.2491 49.8482V27.9443C54.2491 13.5972 42.5853 1.93335 28.2382 1.93335ZM46.4732 31.6132C46.4732 33.3107 45.1042 34.625 43.4614 34.625H42.0924C41.9829 34.625 41.8186 34.625 41.7091 34.5702C39.5187 39.2248 34.3165 42.4556 28.2382 42.4556C22.1599 42.4556 16.9577 39.2248 14.822 34.625H13.4531C11.7555 34.625 10.4413 33.256 10.4413 31.6132V28.1633C10.4413 26.4657 11.8103 25.1515 13.4531 25.1515H14.7673C16.6291 21.2088 20.7909 18.2518 25.8288 17.5399V14.2543C24.7883 13.6519 24.0765 12.5568 24.0765 11.2425C24.0765 9.32592 25.6097 7.79265 27.5263 7.79265C29.4429 7.79265 30.9762 9.32592 30.9762 11.2425C30.9762 12.502 30.2643 13.6519 29.2239 14.2543V17.3756C34.8641 17.7589 39.5735 20.8255 41.5996 25.1515C41.7091 25.1515 41.8734 25.0967 41.9829 25.0967H43.3519C45.0495 25.0967 46.3637 26.4657 46.3637 28.1085V31.6132H46.4732Z" fill="#E4873C"/>
<path d="M75.3583 53.9506H68.7985L79.8605 24.289H83.9756L83.4459 29.6265L75.3583 53.9506ZM81.9791 29.6265L81.3884 24.289H85.5442L96.6469 53.9506H90.1075L81.9791 29.6265ZM89.8631 47.8594H74.0545V42.8886H89.8631V47.8594ZM107.485 54.358C105.42 54.358 103.675 53.9913 102.249 53.2579C100.837 52.511 99.7639 51.5671 99.0305 50.4262C98.2971 49.2854 97.9304 48.1106 97.9304 46.9019H103.573C103.614 47.676 103.818 48.3008 104.185 48.7761C104.565 49.2379 105.054 49.5842 105.651 49.8151C106.249 50.0324 106.901 50.141 107.607 50.141C108.354 50.141 108.972 50.046 109.461 49.8558C109.963 49.6657 110.344 49.3941 110.602 49.041C110.86 48.6878 110.989 48.2872 110.989 47.839C110.989 47.418 110.867 47.0513 110.622 46.7389C110.391 46.413 109.95 46.1142 109.298 45.8426C108.66 45.5709 107.722 45.3061 106.487 45.0481C104.993 44.7221 103.648 44.2807 102.453 43.7239C101.271 43.167 100.341 42.454 99.662 41.5848C98.9965 40.702 98.6638 39.6223 98.6638 38.3457C98.6638 37.1234 99.0101 35.9961 99.7027 34.9639C100.409 33.9182 101.414 33.0829 102.718 32.4582C104.035 31.8199 105.611 31.5007 107.444 31.5007C109.359 31.5007 111.009 31.8063 112.394 32.4174C113.78 33.0286 114.839 33.8706 115.572 34.9436C116.319 36.0165 116.693 37.2388 116.693 38.6105H110.765C110.765 37.7685 110.493 37.0758 109.95 36.5326C109.42 35.9757 108.585 35.6973 107.444 35.6973C106.792 35.6973 106.235 35.806 105.774 36.0233C105.312 36.227 104.959 36.5054 104.714 36.8585C104.47 37.2116 104.348 37.6191 104.348 38.0808C104.348 38.5019 104.477 38.8753 104.735 39.2013C104.993 39.5137 105.414 39.7921 105.998 40.0366C106.595 40.2674 107.403 40.4779 108.422 40.6681C110.025 40.9805 111.451 41.4015 112.7 41.9311C113.95 42.4472 114.934 43.1602 115.654 44.0702C116.387 44.9666 116.754 46.1481 116.754 47.6149C116.754 48.9051 116.374 50.0595 115.613 51.0781C114.853 52.0967 113.78 52.898 112.394 53.482C111.009 54.066 109.373 54.358 107.485 54.358ZM126.471 53.9506H120.543V22.6389H126.471V53.9506ZM130.811 42.8886L125.575 48.1446L123.497 43.7646L127.612 38.4883L133.194 31.9081H140.324L130.811 42.8886ZM127.755 43.8461L131.809 40.2199L141.017 53.9506H134.192L127.755 43.8461ZM156.54 53.9506H150.388V24.289H156.54V53.9506ZM165.606 29.2802H141.445V24.289H165.606V29.2802ZM178.868 54.358C176.586 54.358 174.624 53.8759 172.981 52.9116C171.351 51.9474 170.101 50.6639 169.232 49.0613C168.363 47.4451 167.928 45.6524 167.928 43.6831V42.8886C167.928 40.6749 168.343 38.7124 169.171 37.0011C170.013 35.2763 171.201 33.9318 172.736 32.9675C174.284 31.9896 176.111 31.5007 178.216 31.5007C180.348 31.5007 182.134 31.9557 183.574 32.8656C185.014 33.762 186.1 35.0251 186.834 36.6548C187.567 38.271 187.934 40.1656 187.934 42.3386V44.8647H170.475V40.8107H182.107V40.3421C182.094 39.568 181.951 38.8753 181.679 38.2642C181.408 37.6395 180.987 37.1505 180.416 36.7974C179.846 36.4443 179.099 36.2677 178.175 36.2677C177.157 36.2677 176.328 36.5597 175.69 37.1437C175.052 37.7141 174.583 38.4951 174.284 39.4865C173.986 40.4779 173.836 41.612 173.836 42.8886V43.6831C173.836 44.8375 174.047 45.8561 174.468 46.7389C174.902 47.6217 175.527 48.3144 176.342 48.8169C177.157 49.3194 178.128 49.5706 179.255 49.5706C180.328 49.5706 181.32 49.3737 182.229 48.9798C183.139 48.5724 183.92 47.9477 184.572 47.1056L187.465 50.3651C186.772 51.3701 185.706 52.2869 184.267 53.1153C182.841 53.9438 181.041 54.358 178.868 54.358ZM200.544 54.358C198.262 54.358 196.368 53.8623 194.86 52.8709C193.366 51.8794 192.239 50.5417 191.478 48.8576C190.731 47.1735 190.358 45.2925 190.358 43.2146V42.6442C190.358 40.5662 190.731 38.6852 191.478 37.0011C192.225 35.317 193.353 33.9793 194.86 32.9879C196.368 31.9964 198.255 31.5007 200.524 31.5007C202.343 31.5007 203.932 31.8538 205.291 32.56C206.662 33.2527 207.735 34.2441 208.509 35.5343C209.297 36.8246 209.698 38.3525 209.711 40.118H204.15C204.123 39.4118 203.966 38.7667 203.681 38.1827C203.396 37.5987 202.982 37.1369 202.438 36.7974C201.895 36.4443 201.223 36.2677 200.422 36.2677C199.294 36.2677 198.432 36.5733 197.834 37.1845C197.237 37.7821 196.829 38.5698 196.612 39.5476C196.395 40.5119 196.286 41.5441 196.286 42.6442V43.2146C196.286 44.3418 196.388 45.3944 196.592 46.3722C196.809 47.3365 197.216 48.1174 197.814 48.715C198.425 49.299 199.301 49.591 200.442 49.591C201.162 49.591 201.793 49.4552 202.337 49.1836C202.893 48.9119 203.328 48.5317 203.64 48.0427C203.953 47.5402 204.123 46.963 204.15 46.3111H209.711C209.698 47.873 209.277 49.2583 208.448 50.467C207.633 51.6757 206.54 52.6264 205.168 53.3191C203.797 54.0117 202.255 54.358 200.544 54.358ZM218.858 53.9506H212.93V22.6593H218.858V53.9506ZM216.353 42.2367C216.353 40.1724 216.699 38.3321 217.391 36.7159C218.084 35.0997 219.055 33.8299 220.305 32.9064C221.568 31.9693 223.041 31.5007 224.725 31.5007C226.179 31.5007 227.448 31.7859 228.535 32.3563C229.635 32.9132 230.491 33.8163 231.102 35.0658C231.713 36.3153 232.019 37.979 232.019 40.0569V53.9506H226.07V40.0162C226.07 39.0791 225.934 38.3389 225.662 37.7956C225.391 37.2524 224.99 36.8721 224.461 36.6548C223.944 36.4239 223.313 36.3085 222.566 36.3085C221.737 36.3085 221.031 36.4579 220.447 36.7567C219.877 37.0419 219.408 37.4561 219.042 37.9994C218.675 38.529 218.41 39.1538 218.247 39.8736C218.084 40.5798 218.003 41.3471 218.003 42.1756L216.353 42.2367Z" fill="#E4873C"/>
<defs>
<linearGradient id="paint0_linear_33_4526" x1="22.7895" y1="25.9729" x2="22.7895" y2="33.8036" gradientUnits="userSpaceOnUse">
<stop stop-color="#E4873C"/>
<stop offset="1" stop-color="#FF7200"/>
</linearGradient>
<linearGradient id="paint1_linear_33_4526" x1="32.3724" y1="25.9729" x2="32.3724" y2="33.8036" gradientUnits="userSpaceOnUse">
<stop stop-color="#E4873C"/>
<stop offset="1" stop-color="#FF7200"/>
</linearGradient>
<clipPath id="clip0_33_4526">
<rect width="155.745" height="11.7342" fill="white" transform="translate(88.865 75.3986)"/>
</clipPath>
</defs>
</svg>
