<svg width="28" height="28" viewBox="0 0 28 28" fill="none" xmlns="http://www.w3.org/2000/svg">
<path d="M23.4769 20.5177C20.9094 21.7942 17.5438 22.497 14 22.497C10.4562 22.497 7.09064 21.7939 4.52312 20.5174C3.61736 20.067 2.8364 19.5571 2.18288 19C2.06504 19.336 2 19.6809 2 20.0336C2 23.3287 7.37264 26 14 26C20.6274 26 26 23.3287 26 20.0336C26 19.6809 25.935 19.336 25.8169 19.0002C25.1636 19.5571 24.3826 20.0673 23.4769 20.5177Z" fill="#3B3B3B"/>
<path d="M14 14C20.6274 14 26 11.3137 26 8C26 4.68629 20.6274 2 14 2C7.37258 2 2 4.68629 2 8C2 11.3137 7.37258 14 14 14Z" fill="#3B3B3B"/>
<path d="M23.4769 14.5175C20.9094 15.794 17.5438 16.4971 14 16.4971C10.4562 16.4971 7.09064 15.794 4.52312 14.5175C3.61736 14.0671 2.8364 13.5571 2.18288 13C2.06504 13.3358 2 13.6807 2 14.0334C2 17.3286 7.37264 20 14 20C20.6274 20 26 17.3286 26 14.0334C26 13.6807 25.935 13.3358 25.8169 13C25.1636 13.5571 24.3826 14.0671 23.4769 14.5175Z" fill="#3B3B3B"/>
</svg>
