<svg width="20" height="24" viewBox="0 0 20 24" fill="none" xmlns="http://www.w3.org/2000/svg">
<path d="M3.90001 24H16.1C18.1 24 19.7 22.4 19.7 20.4V3.6C19.7 1.6 18.1 0 16.1 0H8.50001C8.00001 0 7.50001 0.0999999 7.00001 0.3C6.60001 0.5 6.30001 0.7 6.00001 1L1.40001 5.6C1.10001 5.9 0.900014 6.3 0.700014 6.6C0.500014 7.1 0.400014 7.6 0.400014 8.1V20.3C0.300014 22.4 1.90001 24 3.90001 24ZM6.00001 7.3H14C14.6 7.3 15 7.7 15 8.3C15 8.9 14.6 9.3 14 9.3H6.00001C5.40001 9.3 5.00001 8.9 5.00001 8.3C5.00001 7.7 5.50001 7.3 6.00001 7.3ZM6.00001 11.8H14C14.6 11.8 15 12.2 15 12.8C15 13.4 14.6 13.8 14 13.8H6.00001C5.40001 13.8 5.00001 13.4 5.00001 12.8C5.00001 12.2 5.50001 11.8 6.00001 11.8ZM6.00001 16.2H14C14.6 16.2 15 16.6 15 17.2C15 17.8 14.6 18.2 14 18.2H6.00001C5.40001 18.2 5.00001 17.8 5.00001 17.2C5.00001 16.6 5.50001 16.2 6.00001 16.2Z" fill="#3C3C3C"/>
</svg>
