<svg width="28" height="28" viewBox="0 0 28 28" fill="none" xmlns="http://www.w3.org/2000/svg">
<path fill-rule="evenodd" clip-rule="evenodd" d="M11.0496 19.614C11.1266 19.8086 11.2106 19.9976 11.301 20.1799C11.8053 21.1954 12.512 22.0094 13.3417 22.5142V19.3371C12.5397 19.3564 11.77 19.4524 11.0496 19.614ZM10.4817 16.8109C10.5081 17.5983 10.636 18.3492 10.8485 19.0403C11.6325 18.8594 12.4703 18.7524 13.3417 18.7323V16.8109H10.4817ZM10.8488 13.9768C10.636 14.6681 10.5081 15.419 10.4817 16.2061H13.3417V14.2848C12.4706 14.2646 11.6328 14.1576 10.8488 13.9768ZM13.3417 10.502C12.5148 11.0051 11.8095 11.8166 11.3049 12.8299C11.2131 13.0144 11.128 13.2056 11.0499 13.4028C11.77 13.564 12.5397 13.6601 13.3417 13.6794V10.502ZM10.4599 13.253C9.91026 13.0964 9.39506 12.901 8.9227 12.672C9.05458 12.5098 9.19486 12.3544 9.34242 12.2066C10.1228 11.4262 11.1143 10.857 12.2239 10.5916C11.646 11.1171 11.1495 11.7866 10.7643 12.5605C10.6537 12.7828 10.552 13.0141 10.4602 13.253H10.4599ZM9.87694 16.2058C9.90326 15.3672 10.0382 14.5653 10.2633 13.8247C9.6535 13.6492 9.08202 13.4271 8.5601 13.1659C7.98022 14.0462 7.62294 15.0861 7.56806 16.2058H9.87694ZM10.2636 19.1915C10.0382 18.4509 9.90298 17.6492 9.87694 16.8106H7.56806C7.62294 17.9301 7.98022 18.97 8.5601 19.8506C9.08202 19.5894 9.6535 19.367 10.2636 19.1915ZM12.2236 22.4249C11.1143 22.1595 10.1228 21.5902 9.34242 20.8102C9.19458 20.6623 9.05458 20.5072 8.9227 20.3448C9.39506 20.1158 9.91054 19.92 10.4605 19.7635C10.5512 19.999 10.6511 20.2272 10.7603 20.4467C11.1467 21.2248 11.6443 21.8974 12.2239 22.4249H12.2236ZM15.1673 10.617C15.6956 11.1042 16.1551 11.7124 16.5225 12.4113C16.6599 12.6731 16.7848 12.9478 16.8957 13.2336C17.4204 13.0805 17.9132 12.8915 18.3663 12.6717C18.0149 12.2396 17.6052 11.8569 17.1494 11.5349C16.558 11.1174 15.8885 10.8027 15.1673 10.617ZM16.3077 13.3871C15.5674 13.5582 14.7741 13.6598 13.9465 13.6797V10.4577C14.768 10.9346 15.4739 11.7135 15.9885 12.6924C16.1053 12.9142 16.2119 13.1463 16.3077 13.3871ZM13.9465 22.5596C14.5205 22.2267 15.0301 21.7529 15.4573 21.1756C15.7953 20.7189 16.0815 20.1975 16.3069 19.6297C16.0367 19.5672 15.7595 19.5143 15.4758 19.4709C14.983 19.3956 14.4715 19.35 13.9465 19.3374V22.5596ZM16.0761 17.7652C16.4029 17.4045 16.7353 17.0638 17.069 16.7448C17.083 16.7336 17.0959 16.7213 17.1077 16.7082C17.1995 16.6211 17.2911 16.5357 17.3832 16.452C17.3863 16.4492 17.3893 16.4464 17.3924 16.4436C18.0045 15.8866 18.6177 15.4053 19.2074 15.0125C19.4095 14.8778 19.6086 14.7538 19.8032 14.6406C19.8119 14.6362 19.8203 14.6314 19.8284 14.6261C20.5553 14.2072 21.2217 13.9448 21.7744 13.8662L23.1733 15.1332C23.1428 15.8466 22.8314 16.7742 22.2857 17.7999C21.7117 18.8793 20.884 20.0528 19.8553 21.1884C19.8206 21.2268 19.7665 21.2853 19.6951 21.362L18.7087 20.4686C18.7006 20.4599 18.6922 20.4515 18.6829 20.4436C18.6776 20.4392 18.6723 20.435 18.667 20.4308L17.5069 19.3802C17.4966 19.3693 17.4857 19.3595 17.4736 19.35L17.0127 18.9325C17.0046 18.9241 16.9959 18.9162 16.9867 18.909L15.9193 17.9421C16.0011 17.8494 16.0543 17.7895 16.0761 17.7652ZM18.0597 20.6931C17.5268 21.2554 16.8893 21.7154 16.1792 22.0413C15.8566 22.1892 15.5187 22.3098 15.1684 22.4C15.4481 22.1424 15.7065 21.8523 15.942 21.5345C16.3248 21.0171 16.6462 20.426 16.8949 19.7826C16.9761 19.8061 17.0561 19.8307 17.1357 19.8562L18.0597 20.6931ZM17.4467 15.5929C17.3868 14.9682 17.2661 14.3685 17.0934 13.8048C17.678 13.6324 18.2263 13.4173 18.7289 13.1656C18.9509 13.5027 19.1402 13.8631 19.2925 14.2425C19.1545 14.3265 19.0147 14.4155 18.8742 14.509C18.4085 14.8193 17.9289 15.1827 17.4467 15.5929ZM16.7621 16.2058C16.8008 16.1694 16.8397 16.1333 16.8786 16.0972C16.8445 15.3434 16.7165 14.6241 16.5104 13.9597L16.4715 13.9689C15.6785 14.1543 14.8299 14.2638 13.947 14.2842V16.2056H16.7624L16.7621 16.2058ZM15.2683 17.7702C15.3459 17.68 15.4053 17.6112 15.4464 17.5647C15.4722 17.5356 15.5324 17.4686 15.6298 17.3611C15.8009 17.1724 15.9734 16.9887 16.1467 16.8109H13.9467V18.7323C14.5017 18.7452 15.0432 18.7933 15.566 18.8731C15.7701 18.9042 15.9714 18.9406 16.1697 18.9812L15.2955 18.1894C15.1743 18.0796 15.1631 17.8937 15.2686 17.7705L15.2683 17.7702ZM25.9487 11.8241C25.9599 11.809 25.9727 11.795 25.9865 11.7824L26.458 11.2616C26.5714 11.1364 26.6153 10.9648 26.5952 10.7887C26.5742 10.6058 26.4849 10.4213 26.332 10.2754C26.3216 10.2676 26.3118 10.2589 26.3026 10.2494L26.3031 10.2488C26.2376 10.1914 26.1665 10.1452 26.0929 10.1102C26.0772 10.1049 26.0618 10.0982 26.0475 10.0904C25.9529 10.052 25.8549 10.0321 25.7594 10.0307C25.583 10.0279 25.4167 10.089 25.303 10.2144L22.3003 13.5296L23.4558 14.5762L25.9489 11.8238L25.9487 11.8241ZM3.82082 5.70892C3.59822 5.70892 3.41762 5.52832 3.41762 5.30572C3.41762 5.08312 3.59822 4.90252 3.82082 4.90252H3.83538C4.05798 4.90252 4.23858 5.08312 4.23858 5.30572C4.23858 5.52832 4.05798 5.70892 3.83538 5.70892H3.82082ZM6.13194 5.70892C5.90934 5.70892 5.72874 5.52832 5.72874 5.30572C5.72874 5.08312 5.90934 4.90252 6.13194 4.90252H6.1465C6.3691 4.90252 6.5497 5.08312 6.5497 5.30572C6.5497 5.52832 6.3691 5.70892 6.1465 5.70892H6.13194ZM8.44306 5.70892C8.22046 5.70892 8.03986 5.52832 8.03986 5.30572C8.03986 5.08312 8.22046 4.90252 8.44306 4.90252H8.45762C8.68022 4.90252 8.86082 5.08312 8.86082 5.30572C8.86082 5.52832 8.68022 5.70892 8.45762 5.70892H8.44306ZM11.7305 5.60812C11.5637 5.60812 11.4281 5.4726 11.4281 5.30572C11.4281 5.13884 11.5637 5.00332 11.7305 5.00332H23.4676C23.6345 5.00332 23.77 5.13884 23.77 5.30572C23.77 5.4726 23.6345 5.60812 23.4676 5.60812H11.7305ZM25.8887 7.99876V9.436C25.8487 9.4318 25.8087 9.42928 25.7689 9.42872C25.4245 9.42312 25.0927 9.54996 24.8564 9.81092L21.7282 13.2647C21.1685 13.3386 20.5186 13.5713 19.8214 13.9415C19.6235 13.4655 19.3717 13.0175 19.0744 12.6045C19.0716 12.6003 19.0685 12.5961 19.0654 12.5922C18.6317 11.993 18.1011 11.4682 17.4969 11.0415C16.4074 10.2724 15.0782 9.82044 13.6443 9.82044C11.7975 9.82044 10.1253 10.5692 8.91514 11.7793C7.7047 12.9898 6.95626 14.6616 6.95626 16.5085C6.95626 18.3554 7.70498 20.0276 8.91514 21.2377C10.1256 22.4482 11.7975 23.1966 13.6443 23.1966C14.6367 23.1966 15.5803 22.9793 16.4298 22.5896C17.2177 22.2281 17.9222 21.7193 18.5082 21.0994L19.4972 21.9951L19.5047 22.0024C19.6254 22.1172 19.8164 22.1124 19.9312 21.9918C19.9967 21.9229 20.0589 21.8574 20.1171 21.7946C20.1577 21.751 20.2187 21.6843 20.3022 21.5922C21.369 20.4142 22.2263 19.199 22.8199 18.0832C23.4147 16.9649 23.7509 15.9328 23.777 15.1194L25.889 12.7876V24.3538C25.889 24.486 25.8347 24.6061 25.7473 24.6935C25.66 24.7808 25.5399 24.8352 25.4077 24.8352H1.88098C1.74882 24.8352 1.6287 24.7808 1.54134 24.6935C1.45398 24.6061 1.39966 24.486 1.39966 24.3538V7.99876H25.8887ZM1.39966 7.39396H25.8885V3.64644C25.8885 3.51456 25.8341 3.39416 25.7468 3.3068C25.6594 3.21944 25.5393 3.16512 25.4071 3.16512H1.88098C1.7491 3.16512 1.6287 3.21944 1.54134 3.3068C1.45398 3.39416 1.39966 3.51428 1.39966 3.64644V7.39396Z" fill="#3B3B3B"/>
</svg>
